<svg xmlns="http://www.w3.org/2000/svg" viewBox="0 0 22 22"><defs><style>.cls-1{fill:#999;}</style></defs><title>资源 8</title><g id="图层_2" data-name="图层 2"><g id="图层_1-2" data-name="图层 1"><path class="cls-1" d="M11,0A11,11,0,1,0,22,11,11,11,0,0,0,11,0Zm5.72,19.41c-1.22-.12-3.36-.64-3.38-2.77,0-.64-.29-1.08,0-1.4a5.77,5.77,0,0,0,.93-2.33c.07-.36.92-.48.93-1.4.43-.46,0-1.29,0-1.87,0-1.44.16-2.79-.47-3.74a4.41,4.41,0,0,0-7.49,0c-.58.84-.47,2.3-.47,3.74,0,.59-.49,1.38,0,1.87,0,.93.82.9.93,1.4a5.35,5.35,0,0,0,.93,2.33c.46.46,0,.76,0,1.4,0,2.13-2.16,2.65-3.38,2.77C2.91,17.64.72,14.19.72,11A10.8,10.8,0,0,1,11,.72,10.8,10.8,0,0,1,21.29,11C21.29,14.19,19.09,17.64,16.72,19.41Z"/></g></g></svg>