<svg xmlns="http://www.w3.org/2000/svg" viewBox="0 0 21.95 22"><defs><style>.cls-1{fill:#999;}</style></defs><title>资源 9</title><g id="图层_2" data-name="图层 2"><g id="图层_1-2" data-name="图层 1"><path class="cls-1" d="M22,10.86a11,11,0,1,1-22,0,11,11,0,0,1,22,0ZM11,.9A10.09,10.09,0,1,0,21,11,10.08,10.08,0,0,0,11,.9Zm-3,8.27h6.24a2.08,2.08,0,0,1,2.2,2.21c0,1.19,0,2.39,0,3.58a2,2,0,0,1-2.1,2.31c-2.27.07-4.55,0-6.82,0A2,2,0,0,1,5.52,15.1q0-1.85,0-3.7A2,2,0,0,1,7,9.3a.46.46,0,0,0,.36-.55,9.75,9.75,0,0,1,0-1.1,3.44,3.44,0,0,1,3.88-3,3.33,3.33,0,0,1,3,3.81c0,.13-.18.24-.28.37a1.61,1.61,0,0,1-.31-.4,2.25,2.25,0,0,1,0-.51,2.69,2.69,0,0,0-3-2.67A2.82,2.82,0,0,0,7.94,8.14c0,.32,0,.65,0,1Zm3,.64H7.72a1.43,1.43,0,0,0-1.58,1.58q0,1.85,0,3.7A1.46,1.46,0,0,0,7.7,16.71q3.27,0,6.53,0A1.48,1.48,0,0,0,15.81,15q0-1.79,0-3.58a1.51,1.51,0,0,0-1.65-1.65H11Zm0,0h3.18a1.51,1.51,0,0,1,1.65,1.65q0,1.79,0,3.58a1.48,1.48,0,0,1-1.58,1.67q-3.27,0-6.53,0a1.46,1.46,0,0,1-1.55-1.63q0-1.85,0-3.7A1.43,1.43,0,0,1,7.72,9.81H11Zm.3,4.83.33-.14a1.8,1.8,0,1,0-2.38-2.1,1.77,1.77,0,0,0,1.09,2.06c.31.13.42.29.38.6a1.06,1.06,0,0,0,0,.46c0,.12.17.21.27.32.1-.1.26-.2.28-.32a6.24,6.24,0,0,0,0-.88Zm0,0a6.25,6.25,0,0,1,0,.88c0,.12-.18.21-.28.32-.09-.1-.22-.19-.27-.32a1.07,1.07,0,0,1,0-.46c0-.31-.08-.47-.38-.6A1.77,1.77,0,0,1,9.22,12.4a1.8,1.8,0,1,1,2.38,2.1l-.33.14ZM11,14a1.21,1.21,0,1,0-1.22-1.21A1.25,1.25,0,0,0,11,14Z"/></g></g></svg>